<svg xmlns="http://www.w3.org/2000/svg" width="234" height="228" viewBox="0 0 234 228" version="1.1"><path d="M 107.441 23.555 C 105.577 25.049, 105.589 25.067, 107.750 24.020 C 108.987 23.420, 110 22.720, 110 22.465 C 110 21.700, 109.481 21.921, 107.441 23.555 M 174 33.430 C 174 33.705, 174.900 34.411, 176 35 C 177.100 35.589, 178 35.845, 178 35.570 C 178 35.295, 177.100 34.589, 176 34 C 174.900 33.411, 174 33.155, 174 33.430 M 188 41.430 C 188 41.705, 188.900 42.411, 190 43 C 191.100 43.589, 192 43.845, 192 43.570 C 192 43.295, 191.100 42.589, 190 42 C 188.900 41.411, 188 41.155, 188 41.430 M 200 48.430 C 200 48.705, 200.900 49.411, 202 50 C 203.100 50.589, 204 50.845, 204 50.570 C 204 50.295, 203.100 49.589, 202 49 C 200.900 48.411, 200 48.155, 200 48.430 M 44.073 61.635 C 42.933 63.084, 42.014 64.772, 42.030 65.385 C 42.047 65.998, 42.560 65.600, 43.170 64.500 C 43.781 63.400, 44.962 61.712, 45.795 60.750 C 46.628 59.788, 47.048 59, 46.728 59 C 46.407 59, 45.212 60.186, 44.073 61.635 M 112.461 62.242 C 112.167 63.008, 112.055 68.330, 112.213 74.068 L 112.500 84.500 146.391 84.763 L 180.282 85.027 179.662 79.796 C 178.863 73.045, 174.763 67.301, 168.389 64 C 163.672 61.557, 162.982 61.493, 138.278 61.174 C 117.367 60.905, 112.903 61.089, 112.461 62.242 M 90.821 94.389 C 83.017 96.500, 76.706 102.373, 74.153 109.899 C 71.529 117.636, 67.574 117, 118.304 117 L 163.607 117 168.818 114.403 C 175.341 111.153, 179.370 104.963, 179.448 98.074 L 179.500 93.500 137.500 93.312 C 106.249 93.172, 94.302 93.448, 90.821 94.389 M 40.272 98 C 40.272 100.475, 40.467 101.487, 40.706 100.250 C 40.944 99.013, 40.944 96.987, 40.706 95.750 C 40.467 94.513, 40.272 95.525, 40.272 98 M 112 154.111 L 112 183.223 115.695 182.529 C 120.193 181.686, 128.652 177.553, 131.845 174.640 C 136.683 170.225, 137 168.468, 137 146.050 L 137 125 124.500 125 L 112 125 112 154.111 M 41 164.441 C 41 165.234, 41.408 166.134, 41.907 166.442 C 42.405 166.751, 42.578 166.102, 42.290 165.001 C 41.679 162.666, 41 162.371, 41 164.441 M 217.872 171.750 C 216.629 173.336, 216.664 173.371, 218.250 172.128 C 219.916 170.821, 220.445 170, 219.622 170 C 219.415 170, 218.627 170.787, 217.872 171.750" stroke="none" fill="#fbf6f9" fill-rule="evenodd"/><path d="M 126 13.674 C 124.520 14.287, 91.208 33.373, 63 49.769 C 46.469 59.378, 45.484 60.135, 42.894 65.210 C 41.116 68.693, 41 71.764, 41 115.395 C 41 145.800, 41.368 162.843, 42.064 164.685 C 43.664 168.921, 47.733 172.730, 55.500 177.262 C 59.350 179.509, 66.100 183.451, 70.500 186.023 C 130.688 221.200, 130.611 221.166, 140.145 216.779 C 148.915 212.743, 215.260 174.062, 218.373 171.169 C 224.016 165.926, 224 166.089, 224 115.492 C 224 71.766, 223.884 68.694, 222.106 65.210 C 219.468 60.041, 218.718 59.487, 198.500 47.781 C 134.300 10.609, 140.043 13.652, 133.500 13.339 C 130.200 13.182, 126.825 13.332, 126 13.674 M 112.461 62.242 C 112.167 63.008, 112.055 68.330, 112.213 74.068 L 112.500 84.500 146.391 84.763 L 180.282 85.027 179.662 79.796 C 178.863 73.045, 174.763 67.301, 168.389 64 C 163.672 61.557, 162.982 61.493, 138.278 61.174 C 117.367 60.905, 112.903 61.089, 112.461 62.242 M 90.821 94.389 C 83.017 96.500, 76.706 102.373, 74.153 109.899 C 71.529 117.636, 67.574 117, 118.304 117 L 163.607 117 168.818 114.403 C 175.341 111.153, 179.370 104.963, 179.448 98.074 L 179.500 93.500 137.500 93.312 C 106.249 93.172, 94.302 93.448, 90.821 94.389 M 112 154.111 L 112 183.223 115.695 182.529 C 120.193 181.686, 128.652 177.553, 131.845 174.640 C 136.683 170.225, 137 168.468, 137 146.050 L 137 125 124.500 125 L 112 125 112 154.111" stroke="none" fill="#ec3fae" fill-rule="evenodd"/></svg>